# xmcd
#
# Track frame offsets:
#	150
#	16268
#	29727
#	45202
#	60243
#	74871
#	83875
#	90099
#	92553
#	103440
#	116689
#	124684
#	131531
#	143224
#	157076
#	167323
#	176147
#	189420
#	204434
#	207620
#	222087
#
# Disc length: 3224 seconds
#
# Revision: 1
# Processed by: cddbd v1.5.2PL0 Copyright (c) Steve Scherf et al.
# Submitted via: EasyCDDAExtractor 16.0.6.1
#
DISCID=280c9615
DTITLE=Makropoylos - LIVE Teatro
DYEAR=1900
DGENRE=
TTITLE0=eisagogi
TTITLE1=apopse xorizo
TTITLE2=dodeka kai ena
TTITLE3=dyskolh nyxta
TTITLE4=poy an se vro
TTITLE5=ektaktoy anagkhs
TTITLE6=otan gia mena tha milas
TTITLE7=den exeis to dikaioma
TTITLE8=egkainiazo
TTITLE9=krisi
TTITLE10=telika den axizeis tipota
TTITLE11=paratame
TTITLE12=mhn kaneis parapona
TTITLE13=epeteios xorismoy
TTITLE14=ki emeina edo
TTITLE15=ths kardia moy to keno
TTITLE16=kophka sta dyo
TTITLE17=ta xapia moy
TTITLE18=apoxorhsh
TTITLE19=pes moy ti ftaiei
TTITLE20=to onoma soy akoyo
EXTD=
EXTT0=
EXTT1=
EXTT2=
EXTT3=
EXTT4=
EXTT5=
EXTT6=
EXTT7=
EXTT8=
EXTT9=
EXTT10=
EXTT11=
EXTT12=
EXTT13=
EXTT14=
EXTT15=
EXTT16=
EXTT17=
EXTT18=
EXTT19=
EXTT20=
PLAYORDER=
